# xmcd
#
# Track frame offsets: 
#        150
#        17491
#        37099
#        54481
#        72751
#        95185
#        115045
#        133817
#        150901
#        168589
#        187924
#        202513
#        223454
#        245058
#        263438
#        284167
#        302686
#        319936
#        339182
#
# Disc length: 4764 seconds
#
# Revision: 0
# Processed by: cddbd v1.5.1PL0 Copyright (c) Steve Scherf et al.
# Submitted via: ExactAudioCopy v0.95b3
#
DISCID=12129a13
DTITLE=Nek - Hit Collection
DYEAR=2000
DGENRE=Other
TTITLE0=Pieno D'Energa
TTITLE1=La Vita E'
TTITLE2=Laura No Esta
TTITLE3=Tu Nombre
TTITLE4=Esperame
TTITLE5=Tu Esta Aqui
TTITLE6=Tu
TTITLE7=Dime Porque
TTITLE8=Como Vivir Sin It
TTITLE9=Queda Mucho Mas
TTITLE10=Seguimos Juntos
TTITLE11=Carole Umano
TTITLE12=Cuore In Tempesta
TTITLE13=Ragazze Della 5a B
TTITLE14=L'Amore C'E
TTITLE15=Pero Vorrei Ci Fosse Amore
TTITLE16=Paese Furchese
TTITLE17=Facciamo Un Week-End
TTITLE18=Angeli Nel Ghetto
EXTD=
EXTT0=
EXTT1=
EXTT2=
EXTT3=
EXTT4=
EXTT5=
EXTT6=
EXTT7=
EXTT8=
EXTT9=
EXTT10=
EXTT11=
EXTT12=
EXTT13=
EXTT14=
EXTT15=
EXTT16=
EXTT17=
EXTT18=
PLAYORDER=
